<svg width="37" height="33" viewBox="0 0 37 33" fill="none" xmlns="http://www.w3.org/2000/svg">
<g id="location-pin-svgrepo-com 2" clip-path="url(#clip0_18_3424)">
<path id="Vector" d="M18.6318 -0.0112305C11.048 -0.0112305 4.625 5.75036 4.625 12.5741C4.625 19.7207 12.0701 27.0292 17.0778 32.1658C17.0975 32.1865 17.9068 32.9877 18.9035 32.9877H18.9914C19.9892 32.9877 20.7928 32.1865 20.8125 32.1658C25.5115 27.3478 32.375 19.4021 32.375 12.5741C32.375 5.74933 27.365 -0.0112305 18.6318 -0.0112305ZM19.0955 30.7819C19.055 30.818 18.996 30.8582 18.944 30.8922C18.8908 30.8592 18.833 30.818 18.7902 30.7819L18.1855 30.1611C13.4379 25.3039 6.93634 18.6513 6.93634 12.5731C6.93634 6.86824 12.2921 2.04921 18.6307 2.04921C26.5267 2.04921 30.0613 7.33436 30.0613 12.5731C30.0613 17.1869 26.3717 23.3146 19.0955 30.7819ZM18.5405 6.23299C14.7098 6.23299 11.603 9.00292 11.603 12.4205C11.603 15.838 14.7098 18.608 18.5405 18.608C22.3711 18.608 25.478 15.837 25.478 12.4205C25.478 9.00396 22.3723 6.23299 18.5405 6.23299ZM18.5405 16.5455C15.9898 16.5455 13.8623 14.6501 13.8623 12.3751C13.8623 10.1002 15.9366 8.25011 18.4873 8.25011C21.0391 8.25011 23.1123 10.1002 23.1123 12.3751C23.1134 14.6501 21.0923 16.5455 18.5405 16.5455Z" fill="#152656"/>
</g>
<defs>
<clipPath id="clip0_18_3424">
<rect width="37" height="33" fill="white"/>
</clipPath>
</defs>
</svg>
