<svg width="40" height="40" viewBox="0 0 40 40" fill="none" xmlns="http://www.w3.org/2000/svg">
<g clip-path="url(#clip0_10_7436)">
<path fill-rule="evenodd" clip-rule="evenodd" d="M30.0675 24.8L40 34.875L35 40L24.8125 30.06C22.2431 31.6589 19.2763 32.5043 16.25 32.5C7.275 32.5 0 25.2075 0 16.25C0 7.275 7.2925 0 16.25 0C25.225 0 32.5 7.2925 32.5 16.25C32.5045 19.2714 31.6618 22.2335 30.0675 24.8ZM4.9925 16.13C4.9925 22.33 10.0275 27.38 16.2425 27.38C22.4425 27.38 27.4925 22.3425 27.4925 16.13C27.4925 9.93 22.455 4.88 16.2425 4.88C10.0425 4.88 4.9925 9.915 4.9925 16.13Z" fill="white"/>
</g>
<defs>
<clipPath id="clip0_10_7436">
<rect width="40" height="40" fill="white"/>
</clipPath>
</defs>
</svg>
